<svg viewBox="0 0 31 31" xmlns="http://www.w3.org/2000/svg">
  <path d="M15.5 0C6.94 0 0 6.94 0 15.5 0 24.06 6.94 31 15.5 31 24.06 31 31 24.06 31 15.5 31 6.94 24.06 0 15.5 0zm7.255 21.303a.305.305 0 0 1-.304.305h-2.802a.305.305 0 0 1-.305-.305V15.1c0-1.379-1.066-2.943-2.832-2.943-1.853 0-2.831 1.564-2.831 2.943v6.204a.305.305 0 0 1-.305.305h-2.803a.303.303 0 0 1-.305-.304v-6.007a.39.39 0 0 0-.3-.383c-3.243-.722-3.735-2.54-3.798-5.215a.306.306 0 0 1 .307-.311l2.885.016c.161 0 .3.133.304.294.032 1.095.093 2.323 1.09 2.315.206-.001.36-.286.451-.42 1.089-1.6 3.029-2.646 5.306-2.646 3.524 0 6.244 2.502 6.244 5.689v6.667h-.002z"/>
</svg>
