<?xml version="1.0" encoding="UTF-8"?>
<svg width="301px" height="238px" viewBox="0 0 301 238" version="1.1" xmlns="http://www.w3.org/2000/svg" xmlns:xlink="http://www.w3.org/1999/xlink">
    <!-- Generator: Sketch 52.6 (67491) - http://www.bohemiancoding.com/sketch -->
    <title>Outline_App_Icon</title>
    <desc>Created with Sketch.</desc>
    <g id="Page-1" stroke="none" stroke-width="1" fill="none" fill-rule="evenodd">
        <g id="Outline_App_Icon" transform="translate(-27.000000, -50.000000)">
            <path d="M327.09,271.47 L149.24,271.47 C135.98,271.47 125.24,260.04 125.24,245.94 C125.24,231.84 135.99,220.4 149.24,220.4 L247.86,220.4 C261.12,220.4 271.86,208.97 271.86,194.87 C271.86,180.77 261.11,169.33 247.86,169.33 L193,169.33 C179.74,169.33 169,157.9 169,143.8 C169,129.7 179.75,118.26 193,118.26 L206.26,118.26 C219.52,118.26 230.26,106.83 230.26,92.73 C230.26,78.63 219.51,67.19 206.26,67.19 L137.43,67.19" id="Path" stroke="#0080FF" stroke-width="33"></path>
            <rect id="Rectangle" fill="#0080FF" x="49.39" y="50.69" width="11" height="11"></rect>
            <rect id="Rectangle" fill="#0080FF" x="71.39" y="50.69" width="11" height="11"></rect>
            <rect id="Rectangle" fill="#0080FF" x="82.39" y="50.69" width="11" height="11"></rect>
            <rect id="Rectangle" fill="#0080FF" x="104.39" y="50.69" width="11" height="11"></rect>
            <rect id="Rectangle" fill="#0080FF" x="126.39" y="50.69" width="11" height="11"></rect>
            <rect id="Rectangle" fill="#0080FF" x="27.39" y="61.69" width="11" height="11"></rect>
            <rect id="Rectangle" fill="#0080FF" x="93.39" y="61.69" width="11" height="11"></rect>
            <rect id="Rectangle" fill="#0080FF" x="115.39" y="61.69" width="11" height="11"></rect>
            <rect id="Rectangle" fill="#0080FF" x="126.39" y="61.69" width="11" height="11"></rect>
            <rect id="Rectangle" fill="#0080FF" x="60.39" y="72.69" width="11" height="11"></rect>
            <rect id="Rectangle" fill="#0080FF" x="82.39" y="72.69" width="11" height="11"></rect>
            <rect id="Rectangle" fill="#0080FF" x="104.39" y="72.69" width="11" height="11"></rect>
            <rect id="Rectangle" fill="#0080FF" x="115.39" y="72.69" width="11" height="11"></rect>
        </g>
    </g>
</svg>
