<svg viewBox="0 0 838 112" fill="none" xmlns="http://www.w3.org/2000/svg">
  <g clip-path="url(#a)">
    <path fill="#fff" d="M0 0h838v112H0z"/>
    <path fill-rule="evenodd" clip-rule="evenodd" d="M291.333 16c-8.889 0-14.445 4.445-16.667 13.334 3.334-4.445 7.222-6.112 11.667-5 2.536.633 4.348 2.473 6.355 4.51C295.956 32.16 299.738 36 308 36c8.889 0 14.444-4.444 16.667-13.333-3.334 4.444-7.223 6.11-11.667 5-2.536-.634-4.348-2.474-6.355-4.51-3.268-3.318-7.05-7.157-15.312-7.157zm-16.666 20c-8.889 0-14.445 4.445-16.667 13.334 3.333-4.445 7.222-6.111 11.667-5 2.536.634 4.348 2.473 6.354 4.51C279.289 52.16 283.072 56 291.334 56c8.889 0 14.444-4.445 16.667-13.334-3.334 4.444-7.223 6.111-11.667 5-2.536-.634-4.349-2.474-6.355-4.51-3.268-3.317-7.05-7.157-15.312-7.157z" fill="#06B6D4"/>
    <path fill-rule="evenodd" clip-rule="evenodd" d="M357.997 32.852h-5.817V44.11c0 3.003 1.97 2.956 5.817 2.768v4.55c-7.788.939-10.884-1.22-10.884-7.318V32.85h-4.316v-4.878h4.316V21.67l5.067-1.501v7.802h5.817v4.88zm22.178-4.88h5.067V51.43h-5.067v-3.378c-1.783 2.487-4.551 3.988-8.21 3.988-6.38 0-11.682-5.395-11.682-12.338 0-6.99 5.302-12.339 11.682-12.339 3.659 0 6.427 1.501 8.21 3.941v-3.33zm-7.413 19.234c4.223 0 7.413-3.143 7.413-7.506s-3.19-7.507-7.413-7.507c-4.222 0-7.412 3.144-7.412 7.507 0 4.363 3.19 7.506 7.412 7.506zm20.924-22.753c-1.782 0-3.237-1.501-3.237-3.237a3.244 3.244 0 0 1 3.237-3.237 3.243 3.243 0 0 1 3.237 3.237c0 1.736-1.454 3.237-3.237 3.237zm-2.538 26.975V27.971h5.067v23.457h-5.067zm10.935 0V17.183h5.067V51.43h-5.067zm37.951-23.457h5.348l-7.366 23.457h-4.973l-4.879-15.81-4.926 15.81h-4.973L410.9 27.971h5.348l4.551 16.186 4.926-16.186h4.832l4.879 16.186 4.598-16.186zm11.633-3.518c-1.782 0-3.237-1.501-3.237-3.237a3.244 3.244 0 0 1 3.237-3.237 3.244 3.244 0 0 1 3.238 3.237c0 1.736-1.455 3.237-3.238 3.237zm-2.529 26.975V27.971h5.067v23.457h-5.067zm23.269-24.066c5.255 0 9.008 3.566 9.008 9.665v14.402h-5.067V37.542c0-3.565-2.064-5.442-5.254-5.442-3.331 0-5.958 1.97-5.958 6.756V51.43h-5.067V27.972h5.067v3.003c1.548-2.44 4.081-3.613 7.271-3.613zm33.025-8.772h5.067v32.84h-5.067v-3.378c-1.783 2.487-4.551 3.988-8.21 3.988-6.38 0-11.682-5.395-11.682-12.338 0-6.99 5.302-12.339 11.682-12.339 3.659 0 6.427 1.501 8.21 3.94V18.59zm-7.412 28.616c4.222 0 7.412-3.143 7.412-7.506s-3.19-7.507-7.412-7.507c-4.223 0-7.413 3.144-7.413 7.507 0 4.363 3.19 7.506 7.413 7.506zm29.458 4.833c-7.084 0-12.385-5.395-12.385-12.338 0-6.99 5.301-12.339 12.385-12.339 4.598 0 8.585 2.393 10.462 6.052l-4.363 2.533c-1.032-2.205-3.331-3.612-6.146-3.612-4.128 0-7.272 3.143-7.272 7.366 0 4.222 3.144 7.365 7.272 7.365 2.815 0 5.114-1.454 6.24-3.612l4.363 2.486c-1.971 3.706-5.958 6.099-10.556 6.099zm18.912-17.593c0 4.27 12.62 1.69 12.62 10.368 0 4.692-4.082 7.225-9.149 7.225-4.691 0-8.069-2.111-9.57-5.489l4.363-2.533c.75 2.11 2.627 3.377 5.207 3.377 2.252 0 3.988-.75 3.988-2.627 0-4.175-12.62-1.83-12.62-10.227 0-4.41 3.8-7.178 8.585-7.178 3.847 0 7.037 1.783 8.679 4.88l-4.269 2.392c-.844-1.83-2.486-2.674-4.41-2.674-1.829 0-3.424.797-3.424 2.486zm21.627 0c0 4.27 12.62 1.69 12.62 10.368 0 4.692-4.082 7.225-9.149 7.225-4.691 0-8.069-2.111-9.57-5.489l4.363-2.533c.751 2.11 2.627 3.377 5.207 3.377 2.252 0 3.988-.75 3.988-2.627 0-4.175-12.62-1.83-12.62-10.227 0-4.41 3.8-7.178 8.585-7.178 3.847 0 7.038 1.783 8.68 4.88l-4.27 2.392c-.844-1.83-2.486-2.674-4.41-2.674-1.829 0-3.424.797-3.424 2.486z" fill="#111827"/>
    <path d="M339.28 91.28c2.76 0 4.92-1.62 4.92-4.64V77h-2.74v9.64c0 1.14-.66 1.94-2.18 1.94-1.16 0-1.8-.44-2.24-1.32l-2.38 1.36c.86 1.74 2.48 2.66 4.62 2.66zm16.627 0c3.08 0 5.36-1.84 5.36-4.86V77h-2.76v9.2c0 1.36-.72 2.38-2.6 2.38-1.88 0-2.6-1.02-2.6-2.38V77h-2.74v9.42c0 3.02 2.28 4.86 5.34 4.86zm16.626 0c2.98 0 5.08-1.6 5.08-4.22 0-2.86-2.36-3.6-4.58-4.3-2.12-.64-2.66-1.1-2.66-1.96 0-.8.68-1.4 1.84-1.4 1.42 0 2.18.74 2.68 1.8l2.32-1.34c-.94-1.96-2.7-3.14-5-3.14-2.4 0-4.6 1.52-4.6 4.16 0 2.66 2.08 3.56 4.22 4.18 2.08.6 3.02 1 3.02 2.04 0 .78-.58 1.48-2.24 1.48-1.74 0-2.72-.84-3.22-2.14l-2.36 1.38c.76 2.08 2.64 3.46 5.5 3.46zM392.165 77h-10.3v2.64h3.76V91h2.76V79.64h3.78V77zm4.526 9.2h7.5v-2.48h-7.5v2.48zm14.097-9.2v14h2.76V77h-2.76zm17.452 0v8.54l-6-8.54h-2.1v14h2.76v-8.56l6 8.56h2.1V77h-2.76zm9.357 9.2h7.5v-2.48h-7.5v2.48zm22.342-9.2h-10.3v2.64h3.76V91h2.76V79.64h3.78V77zm5.541 0v14h2.76V77h-2.76zm23.051 0h-2.84l-4 6.62-4.02-6.62h-2.84v14h2.76v-9.06l3.94 6.48h.32l3.94-6.5V91h2.74V77zm9.369 11.36v-3.14h5.3v-2.6h-5.3v-2.98h5.8V77h-8.56v14h8.66v-2.64h-5.9z" fill="#06B6D4"/>
  </g>
  <defs>
    <clipPath id="a">
      <path fill="#fff" d="M0 0h838v112H0z"/>
    </clipPath>
  </defs>
</svg>
