<svg data-name="Layer 1" xmlns="http://www.w3.org/2000/svg" viewBox="0 0 300 300">
  <rect x="-17.45" y="-17.45" width="334.9" height="334.9" rx="33.49" stroke-miterlimit="10" fill="#171717" stroke="#fff" stroke-width="1.12"/>
  <path d="M309.09 253.47H131.24c-13.26 0-24-11.43-24-25.53s10.75-25.54 24-25.54h98.62c13.26 0 24-11.43 24-25.53s-10.75-25.54-24-25.54H175c-13.26 0-24-11.43-24-25.53s10.75-25.54 24-25.54h13.26c13.26 0 24-11.43 24-25.53s-10.75-25.54-24-25.54h-68.83" fill="none" stroke="#0080ff" stroke-width="33" stroke-miterlimit="10"/>
  <path class="cls-3" d="M31.39 32.69h11v11h-11zm22 0h11v11h-11zm11 0h11v11h-11zm22 0h11v11h-11zm22 0h11v11h-11zm-99 11h11v11h-11zm66 0h11v11h-11zm22 0h11v11h-11zm11 0h11v11h-11zm-66 11h11v11h-11zm22 0h11v11h-11zm22 0h11v11h-11zm11 0h11v11h-11z"/>
</svg>
