<svg viewBox="0 0 45 45" xmlns="http://www.w3.org/2000/svg">
  <path d="M40.692 17.348a2 2 0 0 0-1.892-1.352h-1.38a2 2 0 0 0-2 2v5.58a2 2 0 0 1-2 2H11.58a2 2 0 0 1-2-2v-5.58a2 2 0 0 0-2-2H6.2a2 2 0 0 0-1.892 1.352L.006 29.91a.113.113 0 0 0 .107.15h44.774a.113.113 0 0 0 .107-.15l-4.302-12.56z"/>
  <path d="M14.217 7.646a2 2 0 0 0-2 2V20.94a2 2 0 0 0 2 2h16.566a2 2 0 0 0 2-2V9.646a2 2 0 0 0-2-2H14.217zM45 32.695H0V45h45V32.695z"/>
  <g clip-path="url(#a)">
    <path d="M21.212 19.61a.56.56 0 0 1-.794 0l-3.171-3.172a.842.842 0 0 1 0-1.192l.397-.397a.842.842 0 0 1 1.191 0l1.98 1.98 5.35-5.35a.842.842 0 0 1 1.191 0l.397.397c.33.33.33.863 0 1.192l-6.54 6.541z" fill="#fff" stroke="#fff" stroke-width=".3"/>
  </g>
  <defs>
    <clipPath id="a">
      <path fill="#fff" transform="translate(17 10)" d="M0 0h11v11H0z"/>
    </clipPath>
  </defs>
</svg>
