<svg viewBox="0 0 20 22" fill="none" xmlns="http://www.w3.org/2000/svg"><path d="M20 11.23c0-.673-.06-1.311-.162-1.933h-9.621v3.84h5.508c-.246 1.26-.97 2.324-2.043 3.048v2.554h3.287c1.924-1.779 3.03-4.401 3.03-7.51z" fill="#4285F4"/><path d="M10.217 21.217c2.759 0 5.066-.92 6.752-2.477l-3.286-2.555c-.92.613-2.086.988-3.466.988-2.665 0-4.92-1.796-5.73-4.223H1.1v2.63c1.677 3.338 5.125 5.637 9.118 5.637z" fill="#34A853"/><path d="M4.487 12.95A5.93 5.93 0 014.163 11c0-.681.12-1.337.324-1.95V6.42H1.098a10.099 10.099 0 000 9.16l3.389-2.63z" fill="#FBBC05"/><path d="M10.217 4.827c1.507 0 2.853.52 3.917 1.533l2.912-2.912C15.283 1.796 12.976.783 10.217.783 6.224.783 2.776 3.082 1.1 6.419L4.487 9.05c.81-2.426 3.065-4.223 5.73-4.223z" fill="#EA4335"/></svg>