<svg viewBox="0 0 20 20" fill="none" xmlns="http://www.w3.org/2000/svg"><path d="M20 10.465a.447.447 0 00-.213-.383h-.002l-.009-.005-6.93-4.102a.93.93 0 00-1.04 0l-6.93 4.102-.008.005a.452.452 0 00.011.773l6.93 4.102a.93.93 0 001.04 0l6.93-4.102a.446.446 0 00.221-.39z" fill="#0A2767"/><path d="M5.685 7.726h4.547v4.169H5.685V7.726zM19.07 3.488V1.581a.864.864 0 00-.844-.883H6.425a.864.864 0 00-.844.883v1.907l6.977 1.86 6.512-1.86z" fill="#0364B8"/><path d="M5.581 3.489h4.651v4.186h-4.65V3.489z" fill="#0078D4"/><path d="M14.884 3.489h-4.652v4.186l4.652 4.186h4.186V7.675l-4.186-4.186z" fill="#28A8EA"/><path d="M10.232 7.675h4.652v4.186h-4.652V7.675z" fill="#0078D4"/><path d="M10.232 11.86h4.652v4.187h-4.652V11.86z" fill="#0364B8"/><path d="M5.685 11.895h4.548v3.79H5.684v-3.79z" fill="#14447D"/><path d="M14.884 11.86h4.186v4.187h-4.186V11.86z" fill="#0078D4"/><path d="M19.787 10.83l-.009.004-6.93 3.898c-.03.018-.06.036-.093.052a.967.967 0 01-.376.093l-.378-.222a.934.934 0 01-.093-.053l-7.024-4.008h-.003l-.23-.129v7.89c.004.527.433.95.96.947h13.444c.008 0 .015-.003.024-.003.111-.008.22-.03.325-.068a.953.953 0 00.131-.068.94.94 0 00.465-.808v-7.89c0 .151-.081.29-.213.364z" fill="url(#a)"/><path opacity=".5" d="M19.628 10.434v.484l-7.246 4.989-7.502-5.31a.005.005 0 00-.005-.005l-.688-.414V9.83l.283-.004.6.344.014.005.051.032 7.07 4.033.27.158a.77.77 0 01.074-.028c.014-.01 7-3.94 7-3.94l.08.005z" fill="#0A2767"/><path d="M19.787 10.83l-.009.004-6.93 3.898a.972.972 0 01-1.04 0l-6.93-3.898-.008-.005a.419.419 0 01-.219-.364v7.89c.004.527.433.95.96.947h13.43a.953.953 0 00.96-.947v-7.89a.42.42 0 01-.214.364z" fill="#1490DF"/><path opacity=".1" d="M12.949 14.675l-.104.058a.965.965 0 01-.459.15L15.023 18l4.6 1.108a.948.948 0 00.292-.364l-6.966-4.07z" fill="#000"/><path opacity=".05" d="M13.419 14.41l-.574.323a.962.962 0 01-.459.15l1.236 3.405 6.002.82a.94.94 0 00.376-.753v-.101l-6.58-3.844z" fill="#000"/><path d="M5.623 19.302H19.04a.965.965 0 00.574-.186L12 14.656a.961.961 0 01-.093-.053l-7.023-4.009H4.88l-.23-.129v7.863c0 .538.435.974.972.974z" fill="#28A8EA"/><path opacity=".1" d="M11.163 5.271v9.921c0 .348-.212.66-.535.79a.802.802 0 01-.316.066h-5.66V4.884h.93v-.465h4.73c.47.001.85.382.851.852z" fill="#000"/><path opacity=".2" d="M10.698 5.736v9.921a.759.759 0 01-.07.326.847.847 0 01-.781.529H4.65V4.884h5.196a.781.781 0 01.386.098.846.846 0 01.465.754z" fill="#000"/><path opacity=".2" d="M10.698 5.736v8.991a.859.859 0 01-.851.854H4.65V4.885h5.196a.781.781 0 01.386.098.846.846 0 01.465.754z" fill="#000"/><path opacity=".2" d="M10.233 5.736v8.991c0 .47-.381.852-.851.854h-4.73V4.884h4.73a.852.852 0 01.85.852z" fill="#000"/><path d="M.853 4.884H9.38c.47 0 .852.381.852.852v8.528c0 .47-.381.852-.852.852H.853A.853.853 0 010 14.264V5.736c0-.47.382-.852.853-.852z" fill="url(#b)"/><path d="M2.664 8.46c.21-.448.55-.823.974-1.076a2.944 2.944 0 011.548-.388 2.74 2.74 0 011.432.368c.408.243.738.6.947 1.028.229.47.342.988.332 1.511a3.501 3.501 0 01-.342 1.582 2.516 2.516 0 01-.976 1.063 2.85 2.85 0 01-1.486.378 2.801 2.801 0 01-1.464-.372 2.496 2.496 0 01-.96-1.03 3.239 3.239 0 01-.335-1.493 3.597 3.597 0 01.33-1.571zm1.038 2.525c.112.283.302.529.548.708.25.175.55.265.856.258.325.013.646-.08.914-.266.242-.18.427-.425.532-.708a2.77 2.77 0 00.17-.988 3.035 3.035 0 00-.16-1 1.581 1.581 0 00-.516-.737 1.415 1.415 0 00-.905-.28 1.477 1.477 0 00-.876.26c-.25.18-.444.428-.558.715a2.837 2.837 0 00-.004 2.04v-.002z" fill="#fff"/><path d="M14.884 3.489h4.186v4.186h-4.186V3.489z" fill="#50D9FF"/><defs><linearGradient id="a" x1="12.33" y1="10.47" x2="12.33" y2="19.3" gradientUnits="userSpaceOnUse"><stop stop-color="#35B8F1"/><stop offset="1" stop-color="#28A8EA"/></linearGradient><linearGradient id="b" x1="1.78" y1="4.22" x2="8.45" y2="15.78" gradientUnits="userSpaceOnUse"><stop stop-color="#1784D9"/><stop offset=".5" stop-color="#107AD5"/><stop offset="1" stop-color="#0A63C9"/></linearGradient></defs></svg>