<svg viewBox="0 0 54 45" xmlns="http://www.w3.org/2000/svg">
  <path d="M40.052 8.292h9.423c.868 0 1.572-.703 1.572-1.571V1.57c0-.865-.704-1.57-1.572-1.57H37.957c-.868 0-1.572.704-1.572 1.572v11.031h3.143V8.816c0-.289.235-.524.524-.524zm1.63 7.455H39.53v7.784a5.429 5.429 0 0 1 3.833 5.617 5.436 5.436 0 0 1-4.987 4.978 5.427 5.427 0 0 1-5.839-5.406 5.43 5.43 0 0 1 3.85-5.19v-7.783H20.911c3.503 2.73 5.76 6.987 5.76 11.763V45h25.201c.868 0 1.572-.704 1.572-1.572V27.51c0-6.497-5.266-11.763-11.763-11.763z"/>
  <path d="M23.526 45V27.51c0-6.487-5.279-11.763-11.763-11.763C5.278 15.747 0 21.023 0 27.51v15.918C0 44.296.704 45 1.572 45h21.954zm-7.881-15.137H5.566a1.571 1.571 0 1 1 0-3.143h10.079a1.572 1.572 0 1 1 0 3.143zm20.037-1.143a2.28 2.28 0 0 0 2.277 2.277 2.28 2.28 0 0 0 2.278-2.278 2.282 2.282 0 0 0-2.278-2.278 2.281 2.281 0 0 0-2.277 2.278z"/>
</svg>
