<svg data-name="Layer 1" xmlns="http://www.w3.org/2000/svg" viewBox="0 0 300 300">
  <path d="M329.11 253.47H151.25c-13.26 0-24-11.43-24-25.53s10.75-25.54 24-25.54h98.62c13.27 0 24-11.43 24-25.53s-10.75-25.54-24-25.54H195c-13.26 0-24-11.43-24-25.53s10.75-25.54 24-25.54h13.26c13.26 0 24-11.43 24-25.53s-10.75-25.54-24-25.54h-68.82" fill="none" stroke="#0080ff" stroke-miterlimit="10" stroke-width="33"/>
  <path class="cls-3" d="M51.41 32.69h11v11h-11zm22 0h11v11h-11zm11 0h11v11h-11zm22 0h11v11h-11zm22 0h11v11h-11zm-99 11h11v11h-11zm66 0h11v11h-11zm22 0h11v11h-11zm11 0h11v11h-11zm-66 11h11v11h-11zm22 0h11v11h-11zm22 0h11v11h-11zm11 0h11v11h-11z"/>
</svg>
