<svg data-name="Layer 1" xmlns="http://www.w3.org/2000/svg" viewBox="0 0 960 540">
  <path fill="#171717" d="M0 0h960v540H0z"/>
  <text transform="translate(115.81 338.47)" font-family="Raleway-ExtraBold,Raleway" font-weight="800" fill="#fff" font-size="16.14" letter-spacing="-.02em">b<tspan x="10.04" y="0" letter-spacing="-.03em">y</tspan></text>
  <path class="cls-4" d="M167.9 336.27h-4.24v1l.22-.13 9.81-5.61a2.14 2.14 0 0 0-2.9-.77l-4.27 2.46.26 1c0-.08.1-.16.14-.24l6.12-10.5a2.12 2.12 0 0 0-2.89.77l-2.48 4.26.27 1.51v-13.34a2.1 2.1 0 0 0-2.12 2.1v6.09l1 .94-.12-.2-7.09-12.16a2.09 2.09 0 0 0-.77 2.87l3.4 5.85 1.49.56-13.27-7.58a2.1 2.1 0 0 0 .78 2.87l6.63 3.78 1.67-.19h-16.38a2.11 2.11 0 0 0 2.12 2.1h9.2l.74-1h-.05l-14.89 8.52a2.14 2.14 0 0 0 2.9.76l8.67-5 .25-1.3-9.1 15.64a2.13 2.13 0 0 0 2.9-.77l5.47-9.4-.43-1.24v18.95a2.11 2.11 0 0 0 2.12-2.1V330a6.38 6.38 0 0 1 11.79-3.29l.16.29a6.12 6.12 0 0 1 .76 2.91v.17A6.24 6.24 0 0 1 165 333l-.19.33a6.36 6.36 0 0 1-2.09 2.07l-.31.17a6.21 6.21 0 0 1-3 .75h-2.16a2.11 2.11 0 0 0 2.12 2.1H170a2.11 2.11 0 0 0-2.12-2.1m35.6-8.76a4 4 0 0 0-1.66-1.16 7.87 7.87 0 0 0-3.88-.29 7.69 7.69 0 0 0-1 .24v-5.05a.1.1 0 0 0 0-.07.08.08 0 0 0-.08 0l-3 .46a.08.08 0 0 0-.08.09v16.61a.09.09 0 0 0 .1.1h2.95a.1.1 0 0 0 .1-.1v-9.5l.82-.18a6.82 6.82 0 0 1 1.18-.11 3.38 3.38 0 0 1 1.23.19 1.67 1.67 0 0 1 .77.58 2.55 2.55 0 0 1 .42 1.07 8.35 8.35 0 0 1 .14 1.62v6.33a.09.09 0 0 0 .1.1h2.95a.1.1 0 0 0 .1-.1v-6.76a9.46 9.46 0 0 0-.26-2.28 4.35 4.35 0 0 0-.89-1.77m12.71-.29a4 4 0 0 0-1.64-1 7.49 7.49 0 0 0-2.49-.36 14.68 14.68 0 0 0-2.46.2 12.4 12.4 0 0 0-1.75.4.09.09 0 0 0-.07.1l.37 2.26a.1.1 0 0 0 0 .07h.09a8.32 8.32 0 0 1 1.48-.35 12.42 12.42 0 0 1 2-.15 3.79 3.79 0 0 1 1.22.18 1.94 1.94 0 0 1 .77.5 1.82 1.82 0 0 1 .41.73 3.24 3.24 0 0 1 .11.89v.34a8.48 8.48 0 0 0-1-.17 9.76 9.76 0 0 0-1-.06 10.35 10.35 0 0 0-2 .2 5.41 5.41 0 0 0-1.73.65 3.31 3.31 0 0 0-1.63 3 4 4 0 0 0 .39 1.86 3.29 3.29 0 0 0 1.08 1.23 4.71 4.71 0 0 0 1.66.68 10 10 0 0 0 2.12.21 22.62 22.62 0 0 0 3.12-.19c.92-.13 1.61-.25 2.07-.34a.11.11 0 0 0 .08-.09v-7.3a6.85 6.85 0 0 0-.27-2 3.56 3.56 0 0 0-.87-1.54m-3.89 9a3.39 3.39 0 0 1-1.73-.37 1.33 1.33 0 0 1-.61-1.28 1.26 1.26 0 0 1 .22-.78 1.64 1.64 0 0 1 .61-.49 3.24 3.24 0 0 1 .88-.25 7.89 7.89 0 0 1 1-.06 7.73 7.73 0 0 1 1 .06 6.26 6.26 0 0 1 .62.12v2.93a12.29 12.29 0 0 1-2 .12m15.79-3.54a5.27 5.27 0 0 0-1.23-.82 15.86 15.86 0 0 0-1.8-.73c-.42-.14-.77-.27-1.06-.4a4.17 4.17 0 0 1-.69-.38 1.05 1.05 0 0 1-.37-.37 1.22 1.22 0 0 1-.1-.49.85.85 0 0 1 .51-.8 3.21 3.21 0 0 1 1.42-.27 7.4 7.4 0 0 1 1.73.17 6.78 6.78 0 0 1 1.23.37.11.11 0 0 0 .08 0 .08.08 0 0 0 .05-.07l.54-2.25a.09.09 0 0 0-.06-.11 11.35 11.35 0 0 0-1.55-.39 11.75 11.75 0 0 0-2.17-.2 5.9 5.9 0 0 0-3.57 1 3.18 3.18 0 0 0-1.33 2.69 3.49 3.49 0 0 0 .29 1.48 3.08 3.08 0 0 0 .79 1 5.27 5.27 0 0 0 1.18.74c.45.2.95.4 1.49.59a8.19 8.19 0 0 1 1.86.84 1.06 1.06 0 0 1 .54.91.83.83 0 0 1-.49.82 4 4 0 0 1-1.66.25 8.56 8.56 0 0 1-2.06-.22q-.92-.24-1.56-.48h-.09a.18.18 0 0 0-.05.07l-.51 2.32a.1.1 0 0 0 .06.11 13 13 0 0 0 1.45.43 11.23 11.23 0 0 0 2.73.27 7.3 7.3 0 0 0 3.93-.9 3.05 3.05 0 0 0 1.39-2.7 4 4 0 0 0-.22-1.41 2.9 2.9 0 0 0-.72-1.06m8.6-6.77a6.33 6.33 0 0 0-2.23.41 5.85 5.85 0 0 0-1.94 1.22 6.07 6.07 0 0 0-1.35 2 7.28 7.28 0 0 0-.51 2.82 7.85 7.85 0 0 0 .4 2.53 5.23 5.23 0 0 0 1.22 2 5.54 5.54 0 0 0 2.08 1.34 8.31 8.31 0 0 0 3 .48c.44 0 .88 0 1.31-.07l1.19-.17c.37-.08.7-.15 1-.24a5.86 5.86 0 0 0 .69-.24.1.1 0 0 0 .05-.11l-.39-2.28a.07.07 0 0 0-.05-.06.08.08 0 0 0-.08 0 7.9 7.9 0 0 1-1.39.39 9.63 9.63 0 0 1-1.94.18 4.23 4.23 0 0 1-2.73-.77 3 3 0 0 1-1-2.07h8.31a.09.09 0 0 0 .09-.09v-1.05a6.51 6.51 0 0 0-1.5-4.66 5.52 5.52 0 0 0-4.18-1.58m-2.78 5.15a4.79 4.79 0 0 1 .24-.9 3.07 3.07 0 0 1 .53-.87 2.59 2.59 0 0 1 2-.84 2.67 2.67 0 0 1 1.1.21 2.21 2.21 0 0 1 .77.58 2.49 2.49 0 0 1 .48.86 3.12 3.12 0 0 1 .16 1zm21.26 4.86h-7.39a1.75 1.75 0 0 1 .3-.6 10.89 10.89 0 0 1 .75-.92c.29-.32.6-.64.92-1s.62-.6.88-.83c.49-.44 1-.9 1.46-1.37a12.71 12.71 0 0 0 1.32-1.46 8.46 8.46 0 0 0 .95-1.56 3.94 3.94 0 0 0 .38-1.66 4.43 4.43 0 0 0-1.32-3.37 5.76 5.76 0 0 0-4-1.24 7.82 7.82 0 0 0-3 .58A8 8 0 0 0 244 324a.09.09 0 0 0 0 .13l1.47 1.95a.08.08 0 0 0 .07 0h.07a7.25 7.25 0 0 1 1.29-.93 4.81 4.81 0 0 1 1-.43 4.08 4.08 0 0 1 1.24-.18 2.93 2.93 0 0 1 1.72.49 1.82 1.82 0 0 1 .69 1.62 2.49 2.49 0 0 1-.23 1 5.19 5.19 0 0 1-.64 1 10.46 10.46 0 0 1-.93 1l-1.12 1c-.5.46-1 .93-1.51 1.41a11.7 11.7 0 0 0-1.38 1.53 7.47 7.47 0 0 0-1 1.76 5.37 5.37 0 0 0-.39 2.07v.4a3 3 0 0 0 0 .46.11.11 0 0 0 .09.09h10.76a.09.09 0 0 0 .1-.1V336a.09.09 0 0 0-.1-.1m-65.66-12.39a10.2 10.2 0 0 0-5.7-1.34c-.72 0-1.53 0-2.41.08a17.61 17.61 0 0 0-2.39.31.1.1 0 0 0-.08.1v15.71a.1.1 0 0 0 .1.1h3.07a.09.09 0 0 0 .1-.1v-5h1.44A15 15 0 0 0 187 333a7.23 7.23 0 0 0 2.48-1 4.53 4.53 0 0 0 1.52-1.7 5.76 5.76 0 0 0 .53-2.56 4.74 4.74 0 0 0-2-4.23m-1.41 4.2a2.42 2.42 0 0 1-1.14 2.34 7.41 7.41 0 0 1-3.37.62h-1.39v-5.74q.74-.06 1.83-.06a9.34 9.34 0 0 1 1.63.14 4 4 0 0 1 1.3.45 2.2 2.2 0 0 1 .84.87 2.87 2.87 0 0 1 .3 1.38"/>
  <text transform="translate(109.35 291.03)" font-size="76.86" font-family="Raleway-ExtraBold,Raleway" font-weight="800" fill="#fff">Outline</text>
  <path class="cls-4" d="M391.07 281.01h10.31v10.31h-10.31z"/>
  <path d="M970 427.69H652c-21.07 0-38.15-18.17-38.15-40.58s17.08-40.58 38.15-40.58h156.67c21.08 0 38.16-18.16 38.16-40.57s-17.08-40.58-38.16-40.58H721.5c-21.07 0-38.16-18.17-38.16-40.58s17.09-40.57 38.16-40.57h21.07c21.07 0 38.15-18.17 38.15-40.58s-17.08-40.58-38.15-40.58H633.2" fill="none" stroke="#0080ff" stroke-miterlimit="10" stroke-width="52.44"/>
  <path class="cls-7" d="M493.3 76.86h17.48v17.48H493.3zm34.96 0h17.48v17.48h-17.48zm17.48 0h17.48v17.48h-17.48zm34.96 0h17.48v17.48H580.7zm34.96 0h17.48v17.48h-17.48zM458.34 94.33h17.48v17.48h-17.48zm104.88 0h17.48v17.48h-17.48z"/>
  <path class="cls-7" d="M598.18 94.33h17.48v17.48h-17.48zm17.48 0h17.48v17.48h-17.48zm-104.88 17.48h17.48v17.48h-17.48zm34.96 0h17.48v17.48h-17.48zm34.96 0h17.48v17.48H580.7z"/>
  <path class="cls-7" d="M598.18 111.81h17.48v17.48h-17.48z"/>
</svg>
