<svg data-name="Layer 1" xmlns="http://www.w3.org/2000/svg" viewBox="0 0 755.05 299.7">
  <path fill="#171717" d="M0 0h755.05v299.7H0z"/>
  <path d="M765.06 252H498.44c-13.26 0-24-11.43-24-25.53s10.75-25.54 24-25.54h98.62c13.26 0 24-11.43 24-25.53s-10.75-25.54-24-25.54H542.2c-13.26 0-24-11.43-24-25.53s10.75-25.54 24-25.54h13.26c13.26 0 24-11.43 24-25.53s-10.75-25.54-24-25.54h-68.83" fill="none" stroke="#0080ff" stroke-miterlimit="10" stroke-width="33"/>
  <path class="cls-3" d="M398.6 31.21h11v11h-11zm22 0h11v11h-11zm11 0h11v11h-11zm22 0h11v11h-11zm22 0h11v11h-11zm-99 11h11v11h-11zm66 0h11v11h-11zm22 0h11v11h-11zm11 0h11v11h-11zm-66 11h11v11h-11zm22 0h11v11h-11zm22 0h11v11h-11zm11 0h11v11h-11z"/>
  <text transform="translate(62.02 213.56)" font-family="Raleway-ExtraBold,Raleway" font-weight="800" fill="#fff" font-size="16.14" letter-spacing="-.02em">b<tspan x="10.04" y="0" letter-spacing="-.03em">y</tspan></text>
  <path class="cls-6" d="M114.11 211.36h-4.24v1l.22-.12 9.81-5.62a2.12 2.12 0 0 0-2.89-.76l-4.28 2.45.26 1c0-.08.1-.16.14-.24l6.12-10.5a2.12 2.12 0 0 0-2.89.77l-2.48 4.26.27 1.51v-13.34a2.11 2.11 0 0 0-2.12 2.1V200l1 .94-.12-.2-7.09-12.15a2.08 2.08 0 0 0-.77 2.86l3.4 5.85 1.49.56-13.34-7.65a2.1 2.1 0 0 0 .78 2.87l6.63 3.78 1.67-.19H89.37a2.11 2.11 0 0 0 2.12 2.1h9.2l.74-1h-.05l-14.89 8.52a2.14 2.14 0 0 0 2.9.77l8.67-5 .25-1.3v.05l-9.07 15.55a2.13 2.13 0 0 0 2.9-.77l5.47-9.4-.46-1.19v19a2.1 2.1 0 0 0 2.12-2.1v-16.83a6.37 6.37 0 0 1 11.79-3.28l.16.28A6.25 6.25 0 0 1 112 205v.17a6.32 6.32 0 0 1-.76 2.9l-.18.32a6.49 6.49 0 0 1-2.1 2.07l-.31.17a6.21 6.21 0 0 1-3 .75h-2.15a2.11 2.11 0 0 0 2.13 2.1h10.6a2.11 2.11 0 0 0-2.12-2.1m35.58-8.73a4 4 0 0 0-1.66-1.16 7.87 7.87 0 0 0-3.88-.29 9.67 9.67 0 0 0-1 .24v-5.05a.08.08 0 0 0 0-.07.08.08 0 0 0-.08 0l-2.95.46a.09.09 0 0 0-.08.09v16.61a.09.09 0 0 0 .1.1H143a.1.1 0 0 0 .1-.1V204a8.07 8.07 0 0 1 .82-.19 6.82 6.82 0 0 1 1.18-.11 3.38 3.38 0 0 1 1.23.19 1.67 1.67 0 0 1 .77.58 2.82 2.82 0 0 1 .43 1.07 8.46 8.46 0 0 1 .13 1.63v6.32a.09.09 0 0 0 .1.1h3a.1.1 0 0 0 .1-.1v-6.79a9.46 9.46 0 0 0-.26-2.28 4.42 4.42 0 0 0-.89-1.77m12.7-.27a4 4 0 0 0-1.64-1 7.51 7.51 0 0 0-2.49-.35 14.71 14.71 0 0 0-2.46.19 14 14 0 0 0-1.75.4.09.09 0 0 0-.07.11l.37 2.25a.1.1 0 0 0 0 .07.14.14 0 0 0 .09 0 9.3 9.3 0 0 1 1.48-.35 13.75 13.75 0 0 1 2-.14 3.92 3.92 0 0 1 1.23.17 2 2 0 0 1 .76.5 1.82 1.82 0 0 1 .41.73 3.24 3.24 0 0 1 .12.89v.34c-.37-.08-.72-.13-1-.17a9.76 9.76 0 0 0-1-.06 10.35 10.35 0 0 0-2 .2 5.41 5.41 0 0 0-1.73.65 3.31 3.31 0 0 0-1.63 3 4 4 0 0 0 .39 1.86 3.29 3.29 0 0 0 1.08 1.23 4.71 4.71 0 0 0 1.66.68 10 10 0 0 0 2.12.21 22.62 22.62 0 0 0 3.12-.19c.92-.13 1.62-.24 2.07-.34a.11.11 0 0 0 .08-.09v-7.3a7.1 7.1 0 0 0-.26-2 3.66 3.66 0 0 0-.88-1.55m-3.89 9a3.39 3.39 0 0 1-1.73-.37 1.33 1.33 0 0 1-.61-1.28 1.26 1.26 0 0 1 .22-.78 1.64 1.64 0 0 1 .61-.49 3 3 0 0 1 .88-.24 6.33 6.33 0 0 1 1-.07 6.24 6.24 0 0 1 1 .07 5 5 0 0 1 .63.11v2.93a12.52 12.52 0 0 1-2 .12m15.77-3.53a5.06 5.06 0 0 0-1.23-.82 18 18 0 0 0-1.8-.73c-.41-.14-.77-.27-1.06-.4a3.55 3.55 0 0 1-.69-.38 1.15 1.15 0 0 1-.35-.39 1.22 1.22 0 0 1-.1-.49.85.85 0 0 1 .51-.8 3.21 3.21 0 0 1 1.42-.27 7.4 7.4 0 0 1 1.73.17 7.69 7.69 0 0 1 1.23.37h.08a.12.12 0 0 0 .06-.06l.53-2.26a.09.09 0 0 0-.06-.11 11.35 11.35 0 0 0-1.55-.39 11.76 11.76 0 0 0-2.17-.19 5.9 5.9 0 0 0-3.57 1 3.18 3.18 0 0 0-1.34 2.66 3.45 3.45 0 0 0 .29 1.48 3.08 3.08 0 0 0 .79 1 5.27 5.27 0 0 0 1.18.74 14 14 0 0 0 1.49.59 8.53 8.53 0 0 1 1.87.84 1.07 1.07 0 0 1 .53.91.83.83 0 0 1-.49.82 4 4 0 0 1-1.66.25 8.56 8.56 0 0 1-2.06-.22 14.14 14.14 0 0 1-1.56-.48h-.08s-.05 0-.05.07l-.52 2.32a.1.1 0 0 0 .06.11 13 13 0 0 0 1.45.43 11.26 11.26 0 0 0 2.74.27 7.2 7.2 0 0 0 3.92-.9 3 3 0 0 0 1.39-2.7 4 4 0 0 0-.22-1.41 2.86 2.86 0 0 0-.72-1.06m8.59-6.76a6.32 6.32 0 0 0-2.23.4 5.85 5.85 0 0 0-1.94 1.22 6.07 6.07 0 0 0-1.35 2 7.29 7.29 0 0 0-.51 2.83 7.79 7.79 0 0 0 .4 2.52 5.34 5.34 0 0 0 1.22 2 5.65 5.65 0 0 0 2.08 1.33 8.31 8.31 0 0 0 3 .48 11.26 11.26 0 0 0 1.31-.07c.42 0 .82-.1 1.19-.17a8.29 8.29 0 0 0 1-.24 4.46 4.46 0 0 0 .69-.24.09.09 0 0 0 0-.11l-.39-2.27a.1.1 0 0 0-.13-.08 7.9 7.9 0 0 1-1.39.39 9.63 9.63 0 0 1-1.94.18 4.23 4.23 0 0 1-2.73-.77 3 3 0 0 1-1-2.07h8.31a.09.09 0 0 0 .09-.09v-1.05a6.51 6.51 0 0 0-1.5-4.66 5.56 5.56 0 0 0-4.18-1.57m-2.74 5.13a4.89 4.89 0 0 1 .24-.91 3.22 3.22 0 0 1 .53-.87 2.57 2.57 0 0 1 .84-.6 2.93 2.93 0 0 1 2.25 0 2.34 2.34 0 0 1 .77.58 2.49 2.49 0 0 1 .48.86 3.46 3.46 0 0 1 .17 1zm21.27 4.91h-7.39a2.07 2.07 0 0 1 .3-.6 10.89 10.89 0 0 1 .75-.92c.29-.32.61-.64.93-1s.61-.6.87-.82l1.47-1.38a12.7 12.7 0 0 0 1.31-1.46 8.46 8.46 0 0 0 .95-1.56 3.91 3.91 0 0 0 .38-1.66 4.43 4.43 0 0 0-1.32-3.37 5.74 5.74 0 0 0-4.05-1.23 7.82 7.82 0 0 0-3 .57 8.16 8.16 0 0 0-2.43 1.5.09.09 0 0 0 0 .13l1.47 2a.07.07 0 0 0 .07 0 .07.07 0 0 0 .07 0 6 6 0 0 1 .51-.42 5.67 5.67 0 0 1 1.8-.94 4.08 4.08 0 0 1 1.24-.18 2.93 2.93 0 0 1 1.72.49 1.82 1.82 0 0 1 .69 1.62 2.49 2.49 0 0 1-.23 1 4.9 4.9 0 0 1-.64 1 9.31 9.31 0 0 1-.93 1l-1.12 1-1.51 1.4a12.39 12.39 0 0 0-1.38 1.53 7.47 7.47 0 0 0-1 1.76 5.41 5.41 0 0 0-.39 2.07v.4a3.09 3.09 0 0 0 0 .47.11.11 0 0 0 .1.08h10.75a.09.09 0 0 0 .1-.1v-2.34a.09.09 0 0 0-.1-.1m-65.71-12.34a10.2 10.2 0 0 0-5.7-1.34c-.72 0-1.53 0-2.41.08a16.09 16.09 0 0 0-2.39.32.11.11 0 0 0-.08.09v15.71a.1.1 0 0 0 .1.1h3.07a.09.09 0 0 0 .1-.1v-5h1.44a15.82 15.82 0 0 0 3.32-.31 7.47 7.47 0 0 0 2.47-1 4.53 4.53 0 0 0 1.56-1.75 5.76 5.76 0 0 0 .53-2.56 4.76 4.76 0 0 0-2-4.23m-1.4 4.2a2.43 2.43 0 0 1-1.15 2.34 7.4 7.4 0 0 1-3.37.63h-1.39V200c.49-.05 1.1-.07 1.83-.07a9.34 9.34 0 0 1 1.63.14 4 4 0 0 1 1.3.45 2.2 2.2 0 0 1 .84.87 2.87 2.87 0 0 1 .31 1.38"/>
  <text transform="translate(55.56 166.12)" font-size="76.86" font-family="Raleway-ExtraBold,Raleway" font-weight="800" fill="#fff">Outline</text>
  <path class="cls-6" d="M337.28 156.1h10.31v10.31h-10.31z"/>
</svg>
