<svg data-name="Layer 1" xmlns="http://www.w3.org/2000/svg" viewBox="0 0 300 300">
  <rect x="-17.06" y="-17.06" width="334.12" height="334.12" rx="33.41" fill="#171717"/>
  <path d="M329.11 253.47H151.25c-13.26 0-24-11.43-24-25.53s10.75-25.54 24-25.54h98.62c13.27 0 24-11.43 24-25.53s-10.75-25.54-24-25.54H195c-13.26 0-24-11.43-24-25.53s10.75-25.54 24-25.54h13.26c13.26 0 24-11.43 24-25.53s-10.75-25.54-24-25.54h-68.82" fill="none" stroke="#0080ff" stroke-miterlimit="10" stroke-width="33"/>
  <path class="cls-3" d="M51.41 32.69h11v11h-11zm22 0h11v11h-11zm11 0h11v11h-11zm22 0h11v11h-11zm22 0h11v11h-11zm-99 11h11v11h-11zm66 0h11v11h-11zm22 0h11v11h-11zm11 0h11v11h-11zm-66 11h11v11h-11zm22 0h11v11h-11zm22 0h11v11h-11zm11 0h11v11h-11z"/>
  <text transform="translate(22.66 162.86)" fill="#fff" font-size="32.33" font-family="Raleway-ExtraBold,Raleway" font-weight="800">Outline</text>
  <path fill="#fff" d="M140.59 158.43h4.56v4.56h-4.56z"/>
</svg>
