<svg viewBox="0 0 75 59" fill="none" xmlns="http://www.w3.org/2000/svg"><path d="M67.472.45c.656-.442 2.298-.832 3.258.233l1.773 2.23c.859 1.451-.18 2.797-.85 3.375-3.2 2.649-5.524 4.7-6.974 6.155-2.845 3-4.948 5.999-6.339 8.972-.315.682.495 1.125.915 1.256C69.752 26.105 75 32.16 75 40.842c0 5.114-1.698 9.267-5.095 12.462-3.396 3.194-7.645 4.792-12.746 4.795-4.578-.013-8.617-2.096-12.116-6.25-3.45-3.924-5.172-8.158-5.17-12.701 0-13.347 9.2-26.246 27.6-38.698zM27.57.45c.656-.442 2.298-.832 3.258.233l1.773 2.23c.859 1.451-.18 2.797-.85 3.375-3.197 2.649-5.522 4.7-6.974 6.155-2.845 3-4.948 5.999-6.339 8.972-.315.682.495 1.125.915 1.256 10.497 3.434 15.745 9.49 15.745 18.171 0 5.114-1.698 9.267-5.095 12.462-3.396 3.194-7.645 4.792-12.746 4.795-4.556 0-8.59-2.077-12.101-6.231C1.715 47.954-.002 43.72 0 39.166-.02 25.807 9.17 12.902 27.57.451z" fill="currentColor"/></svg>