<svg viewBox="0 0 53 45" xmlns="http://www.w3.org/2000/svg">
  <path d="M26.174 0C18.73 0 12.522 5.996 12.522 13.653c0 2.912.875 5.51 2.554 7.944L25.13 37.283a1.24 1.24 0 002.09 0l10.096-15.74a13.592 13.592 0 002.512-7.89C39.827 6.125 33.702 0 26.174 0zm0 19.858a6.213 6.213 0 01-6.206-6.205 6.213 6.213 0 016.206-6.206 6.213 6.213 0 016.206 6.206 6.213 6.213 0 01-6.206 6.205z"/>
  <path d="M39.767 30.216l-8.776 10.435c-2.271 2.693-7.439 2.684-9.7.002l-8.79-10.434C4.769 31.579 0 34.07 0 37.047 0 42.213 13.47 45 26.142 45c12.673 0 26.143-2.787 26.143-7.953 0-2.979-4.774-5.471-12.518-6.83z"/>
</svg>
