<svg viewBox="0 0 51 45" xmlns="http://www.w3.org/2000/svg">
  <path d="M16.875 43.594A1.41 1.41 0 0018.281 45h2.813a1.41 1.41 0 001.406-1.406V28.125h-5.625v15.469zm2.813-23.907h-4.474l-3.973-3.98a5.585 5.585 0 00-3.972-1.645H5.625A5.627 5.627 0 000 19.697l.018 8.429L0 42.188a2.808 2.808 0 105.616 0l.009-8.851c.08.044.14.114.22.15l2.557 3.779v4.922A2.81 2.81 0 0011.215 45a2.81 2.81 0 002.812-2.813v-4.965c0-.87-.202-1.74-.588-2.514L9.816 29.32v-7.084l1.837 1.837c.8.8 1.855 1.24 2.98 1.24h5.053A2.81 2.81 0 0022.5 22.5a2.81 2.81 0 00-2.813-2.813zM5.624 11.25a4.22 4.22 0 000-8.438 4.22 4.22 0 000 8.438zm19.688-8.438l2.768 19.609-2.716 13.588c-.378 1.898 1.143 3.366 2.76 3.366 1.336 0 2.46-.8 2.839-2.672.079 1.485 1.283 2.672 2.786 2.672a2.81 2.81 0 002.813-2.813 2.81 2.81 0 002.812 2.813 2.81 2.81 0 002.813-2.813V0H25.311v2.813zm-8.438 0v14.063H22.5V0h-2.813a2.81 2.81 0 00-2.812 2.813zM47.813 0H45v43.594A1.41 1.41 0 0046.406 45h2.813a1.41 1.41 0 001.406-1.406V2.812A2.81 2.81 0 0047.812 0z"/>
</svg>
